<?xml version="1.0" encoding="UTF-8" standalone="no"?><!DOCTYPE svg PUBLIC "-//W3C//DTD SVG 1.1//EN" "http://www.w3.org/Graphics/SVG/1.1/DTD/svg11.dtd"><svg width="100%" height="100%" viewBox="0 0 10667 6000" version="1.1" xmlns="http://www.w3.org/2000/svg" xmlns:xlink="http://www.w3.org/1999/xlink" xml:space="preserve" xmlns:serif="http://www.serif.com/" style="fill-rule:evenodd;clip-rule:evenodd;stroke-linejoin:round;stroke-miterlimit:2;"><g><path d="M5594.4,2063.17l-0,-64.301l50.998,-0l-0,-259.423l-50.998,-0l-0,-64.302l159.645,0c52.106,0 91.74,13.211 118.902,39.634c27.162,26.423 40.743,65.687 40.743,117.794l-0,73.17c-0,52.107 -13.581,91.371 -40.743,117.794c-27.162,26.423 -66.796,39.634 -118.902,39.634l-159.645,0Zm124.168,-66.519l36.585,0c29.564,0 51.183,-7.76 64.856,-23.281c13.674,-15.521 20.51,-37.325 20.51,-65.41l0,-77.605c0,-28.456 -6.836,-50.351 -20.51,-65.688c-13.673,-15.336 -35.292,-23.004 -64.856,-23.004l-36.585,-0l0,254.988Z" style="fill-rule:nonzero;"/><path d="M5974.66,2063.17l0,-388.026l168.514,0c24.391,0 45.64,4.25 63.747,12.75c18.108,8.499 32.151,20.51 42.129,36.031c9.978,15.521 14.967,33.813 14.967,54.877l-0,6.652c-0,23.282 -5.543,42.129 -16.63,56.541c-11.086,14.413 -24.76,24.945 -41.02,31.597l0,9.977c14.782,0.74 26.238,5.821 34.368,15.244c8.13,9.424 12.195,21.896 12.195,37.417l0,126.94l-73.17,0l-0,-116.408c-0,-8.869 -2.31,-16.075 -6.929,-21.618c-4.62,-5.544 -12.288,-8.315 -23.005,-8.315l-101.995,-0l-0,146.341l-73.171,0Zm73.171,-212.86l87.583,0c17.369,0 30.95,-4.712 40.743,-14.135c9.793,-9.424 14.689,-21.896 14.689,-37.417l0,-5.543c0,-15.521 -4.804,-27.993 -14.412,-37.417c-9.609,-9.423 -23.282,-14.135 -41.02,-14.135l-87.583,-0l-0,108.647Z" style="fill-rule:nonzero;"/><path d="M6475.77,2070.93c-48.78,-0 -87.583,-13.397 -116.408,-40.189c-28.825,-26.792 -43.237,-65.133 -43.237,-115.022l0,-93.126c0,-49.889 14.412,-88.23 43.237,-115.022c28.825,-26.792 67.628,-40.188 116.408,-40.188c48.78,-0 87.583,13.396 116.408,40.188c28.825,26.792 43.237,65.133 43.237,115.022l-0,93.126c-0,49.889 -14.412,88.23 -43.237,115.022c-28.825,26.792 -67.628,40.189 -116.408,40.189Zm0,-65.411c27.347,0 48.596,-7.945 63.747,-23.835c15.152,-15.891 22.727,-37.14 22.727,-63.747l0,-97.561c0,-26.608 -7.575,-47.857 -22.727,-63.747c-15.151,-15.891 -36.4,-23.836 -63.747,-23.836c-26.977,-0 -48.134,7.945 -63.47,23.836c-15.336,15.89 -23.004,37.139 -23.004,63.747l-0,97.561c-0,26.607 7.668,47.856 23.004,63.747c15.336,15.89 36.493,23.835 63.47,23.835Z" style="fill-rule:nonzero;"/><path d="M6699.72,2063.17l0,-388.026l159.645,0c24.391,0 45.917,4.897 64.579,14.69c18.662,9.793 33.259,23.558 43.791,41.297c10.533,17.738 15.799,38.802 15.799,63.193l-0,7.76c-0,24.021 -5.451,44.993 -16.353,62.916c-10.902,17.923 -25.683,31.781 -44.346,41.574c-18.662,9.793 -39.819,14.689 -63.47,14.689l-86.474,0l0,141.907l-73.171,0Zm73.171,-208.425l79.268,-0c17.369,-0 31.412,-4.804 42.129,-14.413c10.717,-9.608 16.075,-22.727 16.075,-39.357l0,-5.543c0,-16.63 -5.358,-29.748 -16.075,-39.357c-10.717,-9.608 -24.76,-14.412 -42.129,-14.412l-79.268,-0l0,113.082Z" style="fill-rule:nonzero;"/><path d="M7034.53,2063.17l0,-388.026l159.645,0c24.391,0 45.917,4.897 64.579,14.69c18.662,9.793 33.259,23.558 43.791,41.297c10.533,17.738 15.799,38.802 15.799,63.193l-0,7.76c-0,24.021 -5.451,44.993 -16.353,62.916c-10.902,17.923 -25.684,31.781 -44.346,41.574c-18.662,9.793 -39.819,14.689 -63.47,14.689l-86.474,0l-0,141.907l-73.171,0Zm73.171,-208.425l79.268,-0c17.369,-0 31.412,-4.804 42.129,-14.413c10.717,-9.608 16.075,-22.727 16.075,-39.357l0,-5.543c0,-16.63 -5.358,-29.748 -16.075,-39.357c-10.717,-9.608 -24.76,-14.412 -42.129,-14.412l-79.268,-0l-0,113.082Z" style="fill-rule:nonzero;"/><path d="M7369.34,2063.17l0,-388.026l249.446,0l-0,66.519l-176.275,-0l-0,92.572l160.754,-0l-0,66.518l-160.754,0l-0,95.898l179.6,0l0,66.519l-252.771,0Z" style="fill-rule:nonzero;"/><path d="M7665.35,2063.17l-0,-64.301l50.997,-0l0,-259.423l-50.997,-0l-0,-64.302l159.645,0c52.106,0 91.74,13.211 118.902,39.634c27.162,26.423 40.743,65.687 40.743,117.794l-0,73.17c-0,52.107 -13.581,91.371 -40.743,117.794c-27.162,26.423 -66.796,39.634 -118.902,39.634l-159.645,0Zm124.168,-66.519l36.585,0c29.564,0 51.183,-7.76 64.856,-23.281c13.673,-15.521 20.51,-37.325 20.51,-65.41l-0,-77.605c-0,-28.456 -6.837,-50.351 -20.51,-65.688c-13.673,-15.336 -35.292,-23.004 -64.856,-23.004l-36.585,-0l-0,254.988Z" style="fill-rule:nonzero;"/><path d="M5605.48,2617.5l0,-388.026l139.135,-0l77.051,338.137l9.978,-0l-0,-338.137l72.062,-0l-0,388.026l-139.135,-0l-77.051,-338.137l-9.978,-0l0,338.137l-72.062,-0Z" style="fill-rule:nonzero;"/><path d="M5976.88,2617.5l-0,-388.026l249.445,-0l-0,66.519l-176.275,-0l0,92.572l160.754,-0l-0,66.518l-160.754,0l0,95.898l179.601,0l-0,66.519l-252.771,-0Z" style="fill-rule:nonzero;"/><path d="M6283.97,2617.5l0,-388.026l249.446,-0l-0,66.519l-176.275,-0l-0,92.572l160.754,-0l-0,66.518l-160.754,0l-0,95.898l179.601,0l-0,66.519l-252.772,-0Z" style="fill-rule:nonzero;"/><path d="M6579.98,2617.5l-0,-64.302l50.997,0l0,-259.423l-50.997,0l-0,-64.301l159.645,-0c52.106,-0 91.74,13.211 118.902,39.634c27.162,26.423 40.743,65.687 40.743,117.794l-0,73.17c-0,52.106 -13.581,91.371 -40.743,117.794c-27.162,26.422 -66.796,39.634 -118.902,39.634l-159.645,-0Zm124.168,-66.519l36.585,0c29.564,0 51.183,-7.76 64.856,-23.281c13.673,-15.522 20.51,-37.325 20.51,-65.411l0,-77.605c0,-28.455 -6.837,-50.351 -20.51,-65.687c-13.673,-15.336 -35.292,-23.004 -64.856,-23.004l-36.585,-0l0,254.988Z" style="fill-rule:nonzero;"/><path d="M6960.25,2617.5l0,-388.026l73.171,-0l-0,321.507l177.383,0l0,66.519l-250.554,-0Z" style="fill-rule:nonzero;"/><path d="M7260.69,2617.5l0,-388.026l249.445,-0l0,66.519l-176.274,-0l-0,92.572l160.753,-0l0,66.518l-160.753,0l-0,95.898l179.6,0l0,66.519l-252.771,-0Z" style="fill-rule:nonzero;"/></g><g><path d="M5594.4,4215.95l-0,-64.302l50.998,0l-0,-259.423l-50.998,0l-0,-64.301l159.645,-0c52.106,-0 91.74,13.211 118.902,39.634c27.162,26.423 40.743,65.687 40.743,117.793l-0,73.171c-0,52.106 -13.581,91.371 -40.743,117.794c-27.162,26.422 -66.796,39.634 -118.902,39.634l-159.645,-0Zm124.168,-66.519l36.585,0c29.564,0 51.183,-7.76 64.856,-23.282c13.674,-15.521 20.51,-37.324 20.51,-65.41l0,-77.605c0,-28.455 -6.836,-50.351 -20.51,-65.687c-13.673,-15.336 -35.292,-23.004 -64.856,-23.004l-36.585,-0l0,254.988Z" style="fill:#afd6f3;fill-rule:nonzero;"/><path d="M5974.66,4215.95l0,-388.026l168.514,-0c24.391,-0 45.64,4.25 63.747,12.749c18.108,8.5 32.151,20.51 42.129,36.031c9.978,15.521 14.967,33.814 14.967,54.878l-0,6.652c-0,23.282 -5.543,42.129 -16.63,56.541c-11.086,14.412 -24.76,24.945 -41.02,31.596l0,9.978c14.782,0.739 26.238,5.821 34.368,15.244c8.13,9.424 12.195,21.896 12.195,37.417l0,126.94l-73.17,-0l-0,-116.408c-0,-8.869 -2.31,-16.075 -6.929,-21.619c-4.62,-5.543 -12.288,-8.314 -23.005,-8.314l-101.995,-0l-0,146.341l-73.171,-0Zm73.171,-212.86l87.583,-0c17.369,-0 30.95,-4.712 40.743,-14.135c9.793,-9.424 14.689,-21.896 14.689,-37.417l0,-5.543c0,-15.521 -4.804,-27.994 -14.412,-37.417c-9.609,-9.424 -23.282,-14.135 -41.02,-14.135l-87.583,-0l-0,108.647Z" style="fill:#afd6f3;fill-rule:nonzero;"/><path d="M6475.77,4223.71c-48.78,0 -87.583,-13.396 -116.408,-40.188c-28.825,-26.792 -43.237,-65.133 -43.237,-115.022l0,-93.126c0,-49.889 14.412,-88.23 43.237,-115.022c28.825,-26.793 67.628,-40.189 116.408,-40.189c48.78,0 87.583,13.396 116.408,40.189c28.825,26.792 43.237,65.133 43.237,115.022l-0,93.126c-0,49.889 -14.412,88.23 -43.237,115.022c-28.825,26.792 -67.628,40.188 -116.408,40.188Zm0,-65.41c27.347,0 48.596,-7.945 63.747,-23.836c15.152,-15.89 22.727,-37.139 22.727,-63.747l0,-97.561c0,-26.607 -7.575,-47.856 -22.727,-63.747c-15.151,-15.89 -36.4,-23.836 -63.747,-23.836c-26.977,0 -48.134,7.946 -63.47,23.836c-15.336,15.891 -23.004,37.14 -23.004,63.747l-0,97.561c-0,26.608 7.668,47.857 23.004,63.747c15.336,15.891 36.493,23.836 63.47,23.836Z" style="fill:#afd6f3;fill-rule:nonzero;"/><path d="M6699.72,4215.95l0,-388.026l159.645,-0c24.391,-0 45.917,4.896 64.579,14.689c18.662,9.793 33.259,23.559 43.791,41.297c10.533,17.739 15.799,38.803 15.799,63.193l-0,7.761c-0,24.02 -5.451,44.992 -16.353,62.915c-10.902,17.923 -25.683,31.782 -44.346,41.575c-18.662,9.793 -39.819,14.689 -63.47,14.689l-86.474,0l0,141.907l-73.171,-0Zm73.171,-208.426l79.268,0c17.369,0 31.412,-4.804 42.129,-14.412c10.717,-9.608 16.075,-22.727 16.075,-39.357l0,-5.543c0,-16.63 -5.358,-29.749 -16.075,-39.357c-10.717,-9.608 -24.76,-14.412 -42.129,-14.412l-79.268,-0l0,113.081Z" style="fill:#afd6f3;fill-rule:nonzero;"/><path d="M7034.53,4215.95l0,-388.026l159.645,-0c24.391,-0 45.917,4.896 64.579,14.689c18.662,9.793 33.259,23.559 43.791,41.297c10.533,17.739 15.799,38.803 15.799,63.193l-0,7.761c-0,24.02 -5.451,44.992 -16.353,62.915c-10.902,17.923 -25.684,31.782 -44.346,41.575c-18.662,9.793 -39.819,14.689 -63.47,14.689l-86.474,0l-0,141.907l-73.171,-0Zm73.171,-208.426l79.268,0c17.369,0 31.412,-4.804 42.129,-14.412c10.717,-9.608 16.075,-22.727 16.075,-39.357l0,-5.543c0,-16.63 -5.358,-29.749 -16.075,-39.357c-10.717,-9.608 -24.76,-14.412 -42.129,-14.412l-79.268,-0l-0,113.081Z" style="fill:#afd6f3;fill-rule:nonzero;"/><path d="M7369.34,4215.95l0,-388.026l249.446,-0l-0,66.519l-176.275,-0l-0,92.571l160.754,0l-0,66.519l-160.754,0l-0,95.898l179.6,0l0,66.519l-252.771,-0Z" style="fill:#afd6f3;fill-rule:nonzero;"/><path d="M7665.35,4215.95l-0,-64.302l50.997,0l0,-259.423l-50.997,0l-0,-64.301l159.645,-0c52.106,-0 91.74,13.211 118.902,39.634c27.162,26.423 40.743,65.687 40.743,117.793l-0,73.171c-0,52.106 -13.581,91.371 -40.743,117.794c-27.162,26.422 -66.796,39.634 -118.902,39.634l-159.645,-0Zm124.168,-66.519l36.585,0c29.564,0 51.183,-7.76 64.856,-23.282c13.673,-15.521 20.51,-37.324 20.51,-65.41l-0,-77.605c-0,-28.455 -6.837,-50.351 -20.51,-65.687c-13.673,-15.336 -35.292,-23.004 -64.856,-23.004l-36.585,-0l-0,254.988Z" style="fill:#afd6f3;fill-rule:nonzero;"/><path d="M5605.48,4770.27l0,-388.026l139.135,-0l77.051,338.136l9.978,0l-0,-338.136l72.062,-0l-0,388.026l-139.135,-0l-77.051,-338.137l-9.978,-0l0,338.137l-72.062,-0Z" style="fill:#afd6f3;fill-rule:nonzero;"/><path d="M5976.88,4770.27l-0,-388.026l249.445,-0l-0,66.518l-176.275,0l0,92.572l160.754,0l-0,66.519l-160.754,-0l0,95.898l179.601,-0l-0,66.519l-252.771,-0Z" style="fill:#afd6f3;fill-rule:nonzero;"/><path d="M6283.97,4770.27l0,-388.026l249.446,-0l-0,66.518l-176.275,0l-0,92.572l160.754,0l-0,66.519l-160.754,-0l-0,95.898l179.601,-0l-0,66.519l-252.772,-0Z" style="fill:#afd6f3;fill-rule:nonzero;"/><path d="M6579.98,4770.27l-0,-64.302l50.997,0l0,-259.423l-50.997,0l-0,-64.301l159.645,-0c52.106,-0 91.74,13.211 118.902,39.634c27.162,26.422 40.743,65.687 40.743,117.793l-0,73.171c-0,52.106 -13.581,91.371 -40.743,117.793c-27.162,26.423 -66.796,39.635 -118.902,39.635l-159.645,-0Zm124.168,-66.519l36.585,-0c29.564,-0 51.183,-7.761 64.856,-23.282c13.673,-15.521 20.51,-37.324 20.51,-65.41l0,-77.605c0,-28.455 -6.837,-50.351 -20.51,-65.687c-13.673,-15.337 -35.292,-23.005 -64.856,-23.005l-36.585,0l0,254.989Z" style="fill:#afd6f3;fill-rule:nonzero;"/><path d="M6960.25,4770.27l0,-388.026l73.171,-0l-0,321.507l177.383,-0l0,66.519l-250.554,-0Z" style="fill:#afd6f3;fill-rule:nonzero;"/><path d="M7260.69,4770.27l0,-388.026l249.445,-0l0,66.518l-176.274,0l-0,92.572l160.753,0l0,66.519l-160.753,-0l-0,95.898l179.6,-0l0,66.519l-252.771,-0Z" style="fill:#afd6f3;fill-rule:nonzero;"/></g><path d="M4032.13,2370.81c-12.633,14.988 -25.944,29.49 -39.912,43.458c-130.126,130.126 -306.616,203.231 -490.643,203.231l-633.106,-0l-87.506,-651.35l322.338,0l-0,124.786l335.438,-0l-0,165.142l90.191,-0l29.552,-165.142l152.334,-0l63.361,-354.074l-670.876,0l-0,86.435l-341.53,0l-79.743,-593.566l819.547,0c184.027,0 360.517,73.105 490.643,203.232c13.968,13.967 27.279,28.469 39.912,43.457l0,-246.689l638.26,0l304.325,982.808l0,-982.808l373.089,0l0,1387.77l-638.259,-0l-304.326,-982.808l0,982.808l-373.089,-0l0,-246.689Z"/><path d="M4032.13,4523.58c-12.633,14.988 -25.944,29.49 -39.912,43.457c-130.126,130.127 -306.616,203.232 -490.643,203.232l-633.106,-0l-87.506,-651.35l322.338,-0l-0,124.785l335.438,0l-0,165.142l90.191,0l29.552,-165.142l152.334,0l63.361,-354.073l-670.876,-0l-0,86.435l-341.53,0l-79.743,-593.566l819.547,0c184.027,0 360.517,73.105 490.643,203.231c13.968,13.968 27.279,28.47 39.912,43.458l0,-246.689l638.26,0l304.325,982.808l0,-982.808l373.089,0l0,1387.77l-638.259,-0l-304.326,-982.808l0,982.808l-373.089,-0l0,-246.689Z" style="fill:#afd6f3;"/></svg>